<svg id="visual" viewBox="0 0 900 600" width="600" height="600" xmlns="http://www.w3.org/2000/svg" xmlns:xlink="http://www.w3.org/1999/xlink" version="1.1">
<style>
    .large{
        font: bold 50px sans-serif;
        fill: white;
        font-family: poppins;
    }
</style>
<rect x="0" y="0" width="300" height="300" fill="transparent"></rect><g transform="translate(465.36041730455406 263.5963469061943)">
<path d="M122.1 -191.7C161.2 -188.9 198 -162.2 215.4 -126.3C232.8 -90.3 230.9 -45.2 229 -1.1C227.1 43 225.3 86 207.9 121.9C190.5 157.9 157.5 186.8 120.2 215.3C83 243.8 41.5 271.9 5.1 263.1C-31.3 254.3 -62.7 208.5 -78.9 167.9C-95.1 127.3 -96.3 91.8 -129.1 64.6C-162 37.5 -226.5 18.8 -250.1 -13.6C-273.7 -46 -256.3 -92 -220.8 -114.4C-185.2 -136.7 -131.3 -135.5 -91.5 -137.8C-51.7 -140.2 -25.8 -146.1 7.8 -159.6C41.5 -173.2 83 -194.4 122.1 -191.7" fill="#009473">
</path>
<text id="blobWelcomeText" dominant-baseline="middle" text-anchor="middle" class="large">Welcome</text>
</g>
</svg>